<svg xmlns="http://www.w3.org/2000/svg" viewBox="0 0 69.31 81.29"><defs><style>.cls-1{fill:#56a299;}.cls-2{fill:#fff;}</style></defs><g id="Layer_2" data-name="Layer 2"><g id="Layer_1-2" data-name="Layer 1"><path class="cls-1" d="M.64,2.54,0,11.87v7.07l1.91,7.35L3.19,24l-1.59,9-1-1.13L2.23,43,1.6,54l.95.56-.32,9.33.32,6.5H13.08l3.83.57v-.57h7.66L41.8,69h3.83l2.87-1.41,11.8.28L53.6,69l-6.7,1H65.73l3.19-.14V64.45h.32V42.12L68,37.31l.32-4.8.19-4.35.84-21.95L64.7,2.33,60.52,1.9H54.65L51.05,0,43.39,1.41H32.86l-2.55.85L27.12,1.7H9.57c.32,0-1.91.28-1.91.28Z"/><path class="cls-2" d="M7.83,75.28c0,.22,0,.42,0,.62s0,.34,0,.45,0,.26,0,.37a2.69,2.69,0,0,0,0,.31H7.61a6.08,6.08,0,0,0-.16-.92.8.8,0,0,0-.35-.48,1.54,1.54,0,0,0-.77-.15H5.88v4.73a1.52,1.52,0,0,0,.07.5.37.37,0,0,0,.24.23,2.12,2.12,0,0,0,.53.07v.17l-.55,0H4.81l-.53,0V81a2.12,2.12,0,0,0,.53-.07.37.37,0,0,0,.24-.23,1.52,1.52,0,0,0,.07-.5V75.48H4.67a1.56,1.56,0,0,0-.77.15.8.8,0,0,0-.35.48,6.08,6.08,0,0,0-.16.92H3.2a1.47,1.47,0,0,0,0-.31c0-.11,0-.24,0-.37s0-.26,0-.45,0-.4-.05-.62l.76,0H7.08Z"/><path class="cls-2" d="M10,76.77a1.45,1.45,0,0,1,1.14.45,2,2,0,0,1,.41,1.39H8.59v-.16h2.14a3.07,3.07,0,0,0-.07-.76,1.34,1.34,0,0,0-.26-.55.57.57,0,0,0-.46-.21.83.83,0,0,0-.67.39,2.22,2.22,0,0,0-.36,1.21l0,0,0,.28v.3a2.37,2.37,0,0,0,.18,1,1.52,1.52,0,0,0,.47.62,1,1,0,0,0,.61.21,1.37,1.37,0,0,0,.69-.18,1.43,1.43,0,0,0,.53-.65l.16.07a1.85,1.85,0,0,1-.29.53,1.7,1.7,0,0,1-.53.42,1.53,1.53,0,0,1-.72.16A1.91,1.91,0,0,1,9,81a1.79,1.79,0,0,1-.65-.76,2.67,2.67,0,0,1-.23-1.12,3,3,0,0,1,.24-1.26A1.8,1.8,0,0,1,9,77.06,1.71,1.71,0,0,1,10,76.77Z"/><path class="cls-2" d="M13.76,79l.07.23-.68.9a1,1,0,0,0-.23.47.28.28,0,0,0,.15.29,1.22,1.22,0,0,0,.46.12v.17h-.95a5.46,5.46,0,0,0-.62,0V81a.68.68,0,0,0,.32-.14,2.25,2.25,0,0,0,.4-.44Zm-.22-2.11v.18a.45.45,0,0,0-.27.07c-.07,0-.08.12,0,.21l2.21,3.24a1.3,1.3,0,0,0,.24.29A.61.61,0,0,0,16,81v.18l-.25,0-.34,0-.55,0-.42,0V81a.4.4,0,0,0,.27-.08c.07,0,.08-.12,0-.2l-2.2-3.24a1.4,1.4,0,0,0-.27-.32.5.5,0,0,0-.25-.09v-.18l.26,0h.88Zm2.26,0v.17a.65.65,0,0,0-.34.16,2.3,2.3,0,0,0-.38.42l-1,1.32-.06-.21.64-.91a1,1,0,0,0,.25-.57c0-.12-.18-.19-.47-.21v-.17l.36,0h.33A5.53,5.53,0,0,0,15.8,76.89Z"/><path class="cls-2" d="M17.65,75.51V76.9h1.22v.17H17.65v3.22a.87.87,0,0,0,.14.55.5.5,0,0,0,.39.15.55.55,0,0,0,.43-.2,1.79,1.79,0,0,0,.31-.69l.17.05a2,2,0,0,1-.33.81.87.87,0,0,1-.75.33,1.2,1.2,0,0,1-.46-.07.83.83,0,0,1-.32-.2,1,1,0,0,1-.26-.46,3.25,3.25,0,0,1-.07-.71V77.07h-.79V76.9h.79V75.63l.4,0A1.28,1.28,0,0,0,17.65,75.51Z"/><path class="cls-2" d="M20.62,76.8v3.6a.65.65,0,0,0,.14.48.78.78,0,0,0,.49.12v.18l-.43,0-.57,0-.58,0-.43,0V81a.78.78,0,0,0,.49-.12.61.61,0,0,0,.14-.48V77.8a1,1,0,0,0-.13-.56.58.58,0,0,0-.5-.17v-.18l.52,0a3.44,3.44,0,0,0,.46,0A2.35,2.35,0,0,0,20.62,76.8Zm-.43-2a.49.49,0,0,1,.37.16.52.52,0,0,1,.16.37.55.55,0,0,1-.16.38.51.51,0,0,1-.37.15.5.5,0,0,1-.37-.15.51.51,0,0,1-.16-.38.49.49,0,0,1,.16-.37A.47.47,0,0,1,20.19,74.81Z"/><path class="cls-2" d="M23,74.65V80.4a.61.61,0,0,0,.15.48.77.77,0,0,0,.48.12v.18l-.42,0-.58,0-.57,0-.43,0V81a.73.73,0,0,0,.48-.12.61.61,0,0,0,.15-.48V75.65a.91.91,0,0,0-.13-.55.6.6,0,0,0-.5-.18v-.18l.51,0a3.33,3.33,0,0,0,.46,0A2.15,2.15,0,0,0,23,74.65Z"/><path class="cls-2" d="M26,76.77a1.45,1.45,0,0,1,1.14.45,2,2,0,0,1,.41,1.39H24.59v-.16h2.14a3.07,3.07,0,0,0-.07-.76,1.34,1.34,0,0,0-.26-.55.57.57,0,0,0-.46-.21.83.83,0,0,0-.67.39,2.22,2.22,0,0,0-.36,1.21l0,0,0,.28v.3a2.37,2.37,0,0,0,.18,1,1.52,1.52,0,0,0,.47.62,1,1,0,0,0,.61.21,1.37,1.37,0,0,0,.69-.18,1.43,1.43,0,0,0,.53-.65l.16.07a1.85,1.85,0,0,1-.29.53,1.7,1.7,0,0,1-.53.42,1.53,1.53,0,0,1-.72.16A1.91,1.91,0,0,1,25,81a1.79,1.79,0,0,1-.65-.76,2.67,2.67,0,0,1-.23-1.12,3.19,3.19,0,0,1,.23-1.26,1.88,1.88,0,0,1,.66-.82A1.71,1.71,0,0,1,26,76.77Z"/><path class="cls-2" d="M32.5,75.33a1.87,1.87,0,0,1,.52.07,1.2,1.2,0,0,1,.34.18.76.76,0,0,1,.23.29.65.65,0,0,1,.07.29.36.36,0,0,1-.14.32.49.49,0,0,1-.32.12.48.48,0,0,1-.3-.11.36.36,0,0,1-.13-.31.45.45,0,0,1,.12-.31.52.52,0,0,1,.32-.14.31.31,0,0,0-.2-.19,1.1,1.1,0,0,0-.43-.08,1,1,0,0,0-.69.25,1,1,0,0,0-.27.74,1.35,1.35,0,0,0,.09.47,1.38,1.38,0,0,0,.33.48l.29,0h.23c.22,0,.33.06.33.19a.13.13,0,0,1-.07.12.35.35,0,0,1-.17,0,1.09,1.09,0,0,1-.33-.07l-.27-.11a1.61,1.61,0,0,0-.78.46,1.25,1.25,0,0,0-.29.9,1.55,1.55,0,0,0,.29,1,2,2,0,0,0,.8.62,2.9,2.9,0,0,0,1.12.21,3.2,3.2,0,0,0,.83-.11,2.35,2.35,0,0,0,.7-.3,1.43,1.43,0,0,0,.47-.48,1.14,1.14,0,0,0,.18-.64,1.46,1.46,0,0,0-.07-.4,1.17,1.17,0,0,0-.27-.48,1.36,1.36,0,0,0-.64-.37l.1-.09a1.51,1.51,0,0,1,.86.59,1.66,1.66,0,0,1,.26.9,1.7,1.7,0,0,1-.3,1,2.12,2.12,0,0,1-.86.75,3,3,0,0,1-1.37.28A3.41,3.41,0,0,1,31.76,81a2.31,2.31,0,0,1-1-.71,1.72,1.72,0,0,1-.38-1.11,1.57,1.57,0,0,1,.18-.77,1.73,1.73,0,0,1,.43-.53,2.38,2.38,0,0,1,.51-.32l.41-.15a1.46,1.46,0,0,1-.62-.48,1,1,0,0,1-.21-.6.85.85,0,0,1,.09-.38,1,1,0,0,1,.27-.34,1.11,1.11,0,0,1,.43-.23A1.87,1.87,0,0,1,32.5,75.33Zm3-.16a1.31,1.31,0,0,1,.86.29,1.05,1.05,0,0,1,.35.83,1.12,1.12,0,0,1-.23.71,1.67,1.67,0,0,1-.56.46l-.5.2-.66.21-.67.22-.52.17a2.14,2.14,0,0,0-.52.29.55.55,0,0,0-.21.44.52.52,0,0,0,.13.36.76.76,0,0,0,.3.23.85.85,0,0,0,.33.07,1.24,1.24,0,0,0,.3,0c.12,0,.18-.08.2-.14a.76.76,0,0,1-.26-.12.33.33,0,0,1-.13-.3.43.43,0,0,1,.13-.32.48.48,0,0,1,.33-.12.44.44,0,0,1,.32.13.44.44,0,0,1,.12.32.58.58,0,0,1-.16.4.88.88,0,0,1-.38.24,1.42,1.42,0,0,1-.45.08,1.17,1.17,0,0,1-.47-.1,1,1,0,0,1-.4-.31,1,1,0,0,1-.15-.56,1,1,0,0,1,.28-.73,2.19,2.19,0,0,1,.86-.49,5.65,5.65,0,0,1,.6-.18l.73-.22a5.52,5.52,0,0,0,.69-.26,1.58,1.58,0,0,0,.56-.39.67.67,0,0,0,.15-.41.76.76,0,0,0-.29-.6,1,1,0,0,0-.67-.24l-.17,0a.1.1,0,0,0-.08.06.38.38,0,0,1,.17.16.49.49,0,0,1,.06.22.37.37,0,0,1-.14.29.47.47,0,0,1-.32.12.48.48,0,0,1-.3-.11.37.37,0,0,1-.14-.31.44.44,0,0,1,.14-.34,1,1,0,0,1,.36-.18A2,2,0,0,1,35.51,75.17Z"/><path class="cls-2" d="M43.42,75.28c0,.22,0,.42-.05.62s0,.34,0,.45,0,.26,0,.37,0,.22,0,.31h-.19a5.16,5.16,0,0,0-.15-.92.84.84,0,0,0-.35-.48,1.54,1.54,0,0,0-.77-.15H41.4a1.6,1.6,0,0,0-.43,0,.3.3,0,0,0-.19.19,1.67,1.67,0,0,0-.05.46V80.3a1.18,1.18,0,0,0,.06.44.33.33,0,0,0,.24.2,2.19,2.19,0,0,0,.53.07v.17l-.54,0H39.74l-.45,0V81a1.41,1.41,0,0,0,.43-.07.29.29,0,0,0,.19-.2A1.51,1.51,0,0,0,40,80.3V76.17a1.67,1.67,0,0,0-.05-.46.34.34,0,0,0-.19-.2,1.91,1.91,0,0,0-.43-.06v-.17l.87,0h2.39C42.88,75.3,43.16,75.3,43.42,75.28Zm-1.28,2.93v.17H40.48v-.17Zm.15-1.09q0,.47,0,.72c0,.17,0,.32,0,.46s0,.29,0,.46,0,.4,0,.72h-.19c0-.18-.05-.35-.08-.52a.83.83,0,0,0-.2-.42.72.72,0,0,0-.52-.16v-.17a.58.58,0,0,0,.51-.19.92.92,0,0,0,.19-.45c0-.17,0-.32.07-.45Z"/><path class="cls-2" d="M44.88,81.24A1,1,0,0,1,44.1,81a1.06,1.06,0,0,1-.24-.72.89.89,0,0,1,.17-.58,1.22,1.22,0,0,1,.43-.38A4.75,4.75,0,0,1,45,79l.56-.2a1.73,1.73,0,0,0,.43-.23.37.37,0,0,0,.17-.31v-.52a1.09,1.09,0,0,0-.1-.53A.52.52,0,0,0,45.8,77a1.23,1.23,0,0,0-.39-.06A1.78,1.78,0,0,0,45,77a.69.69,0,0,0-.38.24.49.49,0,0,1,.28.17.53.53,0,0,1,.11.34.42.42,0,0,1-.13.33.49.49,0,0,1-.34.12.38.38,0,0,1-.35-.16.51.51,0,0,1-.11-.34.54.54,0,0,1,.1-.35,1.72,1.72,0,0,1,.28-.25,1.6,1.6,0,0,1,.49-.23,2.37,2.37,0,0,1,.68-.1,1.93,1.93,0,0,1,.58.08,1.2,1.2,0,0,1,.4.23,1.05,1.05,0,0,1,.28.49,3.4,3.4,0,0,1,.06.69v2.31a.61.61,0,0,0,.06.3.23.23,0,0,0,.2.09.39.39,0,0,0,.2,0,.66.66,0,0,0,.17-.12l.09.14a2.1,2.1,0,0,1-.33.22.82.82,0,0,1-.42.09.62.62,0,0,1-.57-.23,1,1,0,0,1-.14-.51,1.46,1.46,0,0,1-.6.59A1.69,1.69,0,0,1,44.88,81.24Zm.37-.34a1,1,0,0,0,.48-.14,1.44,1.44,0,0,0,.45-.49V78.64a.82.82,0,0,1-.38.29q-.27.1-.54.24a1.3,1.3,0,0,0-.48.35.9.9,0,0,0-.2.63.81.81,0,0,0,.19.57A.68.68,0,0,0,45.25,80.9Z"/><path class="cls-2" d="M49.37,76.77a1.41,1.41,0,0,1,.57.11,1.91,1.91,0,0,1,.34.2q.27.23.33-.3h.19c0,.16,0,.34,0,.56s0,.5,0,.86h-.19a2.43,2.43,0,0,0-.17-.6,1.07,1.07,0,0,0-.35-.48.88.88,0,0,0-.6-.19.8.8,0,0,0-.49.16.59.59,0,0,0-.19.48.64.64,0,0,0,.15.43,1.62,1.62,0,0,0,.39.33l.52.34a6.2,6.2,0,0,1,.8.63,1.08,1.08,0,0,1,.33.83,1,1,0,0,1-.2.64,1.25,1.25,0,0,1-.51.39,1.82,1.82,0,0,1-.7.13l-.35,0a1.81,1.81,0,0,1-.31-.09l-.17-.1L48.56,81c-.06,0-.11,0-.15,0a.47.47,0,0,0-.1.28h-.19c0-.18,0-.4,0-.65s0-.6,0-1h.19a4.38,4.38,0,0,0,.17.82,1.13,1.13,0,0,0,.33.54,1,1,0,0,0,.65.2A.8.8,0,0,0,50,81a.7.7,0,0,0,.25-.61.74.74,0,0,0-.27-.6,5.08,5.08,0,0,0-.67-.49l-.56-.39a1.71,1.71,0,0,1-.42-.43,1,1,0,0,1-.16-.58,1,1,0,0,1,.17-.61.92.92,0,0,1,.45-.35A1.53,1.53,0,0,1,49.37,76.77Z"/><path class="cls-2" d="M52.89,74.66v3.11a1.41,1.41,0,0,1,.6-.78,1.7,1.7,0,0,1,.81-.22,1.31,1.31,0,0,1,.52.09.86.86,0,0,1,.35.23,1,1,0,0,1,.23.42,2.94,2.94,0,0,1,.06.67V80.4a.61.61,0,0,0,.15.48.75.75,0,0,0,.48.12v.18l-.43,0-.56,0-.54,0-.39,0V81a.59.59,0,0,0,.42-.12.66.66,0,0,0,.13-.48V78a3.58,3.58,0,0,0,0-.48.64.64,0,0,0-.19-.35.63.63,0,0,0-.44-.13,1,1,0,0,0-.83.42,1.71,1.71,0,0,0-.33,1.09V80.4a.71.71,0,0,0,.12.48.63.63,0,0,0,.43.12v.18l-.4,0-.53,0-.56,0-.43,0V81a.77.77,0,0,0,.48-.12.61.61,0,0,0,.14-.48V75.66A1,1,0,0,0,52,75.1a.6.6,0,0,0-.49-.17v-.18a4.36,4.36,0,0,0,.51,0,3.44,3.44,0,0,0,.46,0A2.35,2.35,0,0,0,52.89,74.66Z"/><path class="cls-2" d="M57.83,76.8v3.6a.65.65,0,0,0,.14.48.78.78,0,0,0,.49.12v.18l-.43,0-.57,0-.57,0-.44,0V81a.78.78,0,0,0,.49-.12.61.61,0,0,0,.14-.48V77.8a1,1,0,0,0-.13-.56.58.58,0,0,0-.5-.17v-.18l.52,0a3.44,3.44,0,0,0,.46,0A2.35,2.35,0,0,0,57.83,76.8Zm-.43-2a.55.55,0,0,1,.53.53.51.51,0,0,1-.16.38.51.51,0,0,1-.37.15.5.5,0,0,1-.37-.15.51.51,0,0,1-.16-.38A.49.49,0,0,1,57,75,.47.47,0,0,1,57.4,74.81Z"/><path class="cls-2" d="M60.91,76.77a1.89,1.89,0,0,1,1,.24,1.65,1.65,0,0,1,.67.73,2.87,2.87,0,0,1,.25,1.3,2.82,2.82,0,0,1-.25,1.29,1.65,1.65,0,0,1-.67.73,2.08,2.08,0,0,1-1.9,0,1.61,1.61,0,0,1-.68-.73A2.82,2.82,0,0,1,59,79a2.87,2.87,0,0,1,.25-1.3A1.61,1.61,0,0,1,60,77,1.89,1.89,0,0,1,60.91,76.77Zm0,.17a.89.89,0,0,0-.78.49,3.23,3.23,0,0,0-.3,1.61,3.18,3.18,0,0,0,.3,1.6.86.86,0,0,0,1.55,0A3.18,3.18,0,0,0,62,79a3.23,3.23,0,0,0-.3-1.61A.88.88,0,0,0,60.91,76.94Z"/><path class="cls-2" d="M66.19,76.77a1.36,1.36,0,0,1,.53.09.86.86,0,0,1,.35.23.94.94,0,0,1,.22.42,2.4,2.4,0,0,1,.07.67V80.4a.65.65,0,0,0,.14.48A.78.78,0,0,0,68,81v.18l-.43,0-.56,0-.54,0-.39,0V81a.59.59,0,0,0,.42-.12.71.71,0,0,0,.12-.48V78a2.45,2.45,0,0,0,0-.48.62.62,0,0,0-.18-.35.65.65,0,0,0-.45-.13,1,1,0,0,0-.84.44,1.79,1.79,0,0,0-.31,1.08V80.4a.71.71,0,0,0,.12.48.59.59,0,0,0,.42.12v.18l-.39,0-.53,0-.57,0-.43,0V81a.78.78,0,0,0,.49-.12A.65.65,0,0,0,64,80.4V77.8a1,1,0,0,0-.13-.56.58.58,0,0,0-.5-.17v-.18l.52,0a3.19,3.19,0,0,0,.45,0,2.47,2.47,0,0,0,.41-.09v1a1.43,1.43,0,0,1,.6-.79A1.63,1.63,0,0,1,66.19,76.77Z"/><path class="cls-2" d="M9.52,56.27a94.22,94.22,0,0,1,54.05,0l-27-42.79Z"/><path class="cls-1" d="M29.91,34.5a7,7,0,0,1,3.43-.76v1.93l-.48,0a4.69,4.69,0,0,0-3.64,1.42,5.7,5.7,0,0,0-1.32,4v7.51h-2V33.85h1.91v2.89A4.74,4.74,0,0,1,29.91,34.5Z"/><path class="cls-1" d="M45.93,34.68a6.66,6.66,0,0,1,2.64,2.65,8.5,8.5,0,0,1,0,7.81A6.75,6.75,0,0,1,46,47.79a7.51,7.51,0,0,1-3.77.94A7.06,7.06,0,0,1,38.94,48a6.14,6.14,0,0,1-2.36-2.17V54h-2V33.85h1.9v2.92a6.16,6.16,0,0,1,2.37-2.25,7,7,0,0,1,3.32-.78A7.51,7.51,0,0,1,45.93,34.68ZM44.84,46.25a5.09,5.09,0,0,0,2-2,6.27,6.27,0,0,0,.71-3,6.16,6.16,0,0,0-.71-3,5.25,5.25,0,0,0-2-2,5.84,5.84,0,0,0-5.62,0,5.27,5.27,0,0,0-2,2,6.16,6.16,0,0,0-.71,3,6.27,6.27,0,0,0,.71,3,5.11,5.11,0,0,0,2,2,5.92,5.92,0,0,0,5.62,0Z"/></g></g></svg>